<svg width="19" height="20" fill="none" xmlns="http://www.w3.org/2000/svg"><path opacity=".5" d="M18.997 3.897a.417.417 0 00-.028-.134l-.011-.028c-.005-.01-.003-.011-.005-.016L17.143.24a.455.455 0 00-.405-.24H2.262a.455.455 0 00-.405.24L.047 3.72l-.005.016c-.003.005-.007.019-.01.028a.418.418 0 00-.029.134c0 .006-.003.01-.003.016v15.652c0 .24.203.435.452.435h18.096c.25 0 .452-.195.452-.435V3.913c0-.006-.003-.01-.003-.016zM16.459.87l1.357 2.608h-6.107L11.369.87h5.09zm-7.917 0h1.916l.339 2.608H8.203L8.543.87zm-.4 3.478h2.715v5.217H8.143V4.348zM2.542.87h5.09l-.34 2.608H1.184L2.54.87zm15.554 18.26H.905V4.348h6.333V10c0 .24.203.435.452.435h3.62c.25 0 .452-.195.452-.435V4.348h6.333V19.13z" fill="#2D0027"/></svg>