<svg width="22" height="22" fill="none" xmlns="http://www.w3.org/2000/svg"><path fill-rule="evenodd" clip-rule="evenodd" d="M7.889 5.68a.707.707 0 00.164-.864L5.829.727a.707.707 0 00-.894-.324L.76 2.003a.703.703 0 00-.44.672C.384 4.699.893 9.7 5.385 14.912c4.491 5.211 9.362 6.452 11.355 6.813.29.051.58-.083.73-.336l2.198-3.893a.706.706 0 00-.187-.93l-3.716-2.802a.707.707 0 00-.88.034l-1.694 1.46a.702.702 0 01-.601.159c-.774-.158-2.692-.743-4.498-2.838S5.99 8.501 5.95 7.712a.702.702 0 01.244-.571l1.696-1.46zm-2.347.702c-.401.344-.62.855-.592 1.383.05.95.399 3.164 2.384 5.467 1.985 2.303 4.123 2.975 5.056 3.165a1.702 1.702 0 001.454-.382h.002l1.512-1.305 3.32 2.504-1.97 3.487c-1.977-.384-6.428-1.64-10.567-6.442C2.002 9.456 1.417 4.868 1.328 2.857l3.74-1.434 1.988 3.654-1.513 1.304-.001.001zm7.39-5.096l.062-.497.062-.496h.002l.004.001.01.002.04.005.143.023a9.8 9.8 0 01.508.103A11.5 11.5 0 0115.43.95c1.3.52 2.902 1.446 3.98 3.062a9.77 9.77 0 011.58 4.347c.067.593.067 1.088.05 1.439a6.67 6.67 0 01-.046.526l-.005.033-.001.01v.003c0 .001 0 .002-.494-.08a88.745 88.745 0 00-.493-.082v-.003l.003-.02.01-.085a5.62 5.62 0 00.027-.35 8.769 8.769 0 00-1.463-5.183c-.923-1.384-2.32-2.208-3.52-2.688a10.496 10.496 0 00-1.973-.57 4.968 4.968 0 00-.119-.019l-.028-.004h-.006zm-.46 3l.059-.497.06-.496h.003l.009.002.027.003.098.015a8.031 8.031 0 011.47.404c.874.334 1.971.934 2.713 1.997.72 1.03.99 2.06 1.08 2.833.044.387.045.711.033.942a4.243 4.243 0 01-.032.351l-.004.023v.008l-.001.003s0 .002-.493-.085L17 9.704l.002-.009.006-.048a3.77 3.77 0 00.017-.208 4.734 4.734 0 00-.029-.776 5.185 5.185 0 00-.906-2.377c-.581-.832-1.47-1.337-2.25-1.635a7.033 7.033 0 00-1.275-.35 3.36 3.36 0 00-.075-.012l-.017-.003h-.003z" fill="#A0148E"/></svg>