<svg width="46" height="65" fill="none" xmlns="http://www.w3.org/2000/svg"><path d="M33.967 56.747a.961.961 0 00-1.302.383 5.159 5.159 0 01-.704.988 4.994 4.994 0 01-3.743 1.66.96.96 0 000 1.919 6.893 6.893 0 005.165-2.29 7.06 7.06 0 00.966-1.355.96.96 0 00-.382-1.305z" fill="#A0148E"/><path d="M44.48 27.166L32.7 15.814a2.602 2.602 0 00-4.079 3.143l-3.549 7.45a15.77 15.77 0 00-1.29 9.616l2.31 12.824a.811.811 0 01-1.59.315c-.666-3.51-2.255-11.924-3.693-19.615a2.57 2.57 0 00.511-.52 2.593 2.593 0 00-1.35-3.992l-.354-1.892a2.594 2.594 0 00-.852-4.643l-.325-1.774a2.597 2.597 0 00-.884-4.745l-.835-4.46A9.22 9.22 0 005.753.2L.763 1.258A.96.96 0 000 2.197v2.67a.96.96 0 001.1.95l4.723-.696a4.136 4.136 0 014.68 3.429l7.584 47.782a10.258 10.258 0 0020.34-2.619l-.883-8.944a13.93 13.93 0 012.505-9.426l2.624-3.7a2.603 2.603 0 001.806-4.477zm-26.917-6.543a.685.685 0 111.115.797.685.685 0 01-1.115-.797zm1.08 6.494a.686.686 0 111.116.797.686.686 0 01-1.116-.797zM17.601 14.93a.685.685 0 11-.677-1.072h.014a.684.684 0 01.663 1.075v-.002zm20.885 19.304a15.85 15.85 0 00-2.852 10.725l.883 8.945a8.34 8.34 0 01-16.534 2.13L12.398 8.247A6.065 6.065 0 005.543 3.22l-3.624.534v-.78l4.23-.898a7.299 7.299 0 018.685 5.797l.832 4.442a2.601 2.601 0 00.888 4.771l.306 1.666a2.595 2.595 0 00.888 4.842c.097.52.196 1.053.299 1.598a2.57 2.57 0 00-1.415 2.75 2.601 2.601 0 002.328 2.156 8600.75 8600.75 0 003.657 19.426 2.717 2.717 0 003.103 2.181 2.713 2.713 0 002.31-2.692 3.064 3.064 0 00-.044-.489l-2.313-12.841a13.855 13.855 0 011.133-8.45l3.221-6.764L40.849 30.9l-2.363 3.334zm4.746-4.797a.683.683 0 01-1.031.096L30.42 18.181a.686.686 0 01.95-.987l11.78 11.354a.679.679 0 01.08.888l.003.001z" fill="#A0148E"/><path d="M35.388 31.349a3.427 3.427 0 10-3.984 5.576 3.427 3.427 0 003.984-5.576zm-1.746 4.277a1.509 1.509 0 01-.494-2.975 1.509 1.509 0 11.495 2.975zm-3.407 8.766a2.584 2.584 0 001.942.45 2.606 2.606 0 10-1.942-.45zm1.402-2.797a.69.69 0 11.232 1.358.69.69 0 01-.232-1.358z" fill="#A0148E"/></svg>