<svg width="62" height="44" fill="none" xmlns="http://www.w3.org/2000/svg"><path d="M60.726 0H.91A.91.91 0 000 .91v41.412a.91.91 0 00.91.91h59.816a.91.91 0 00.91-.91V.91a.911.911 0 00-.91-.91zm-.91 1.82v13.337H1.82V1.82h57.996zM7.242 31.976h-1.3V16.978h1.3v14.998zm.91 1.82a.91.91 0 00.91-.91V16.978h1.981v15.908a.91.91 0 00.91.91h.65v7.615h-5.1v-7.615h.65zm6.012-1.82h-1.3V16.978h1.3v14.998zm.26 1.82h.65a.91.91 0 00.91-.91V16.978h3.542V41.41h-5.102v-7.615zm6.922-16.818h3.543v15.908a.911.911 0 00.91.91h.65v7.615h-5.103V16.978zm6.664 14.998h-1.3V16.978h1.3v14.998zm.26 1.82h.65a.91.91 0 00.91-.91V16.978h1.977v15.908a.91.91 0 00.91.91h.65v7.615H28.27v-7.615zm6.662-1.82h-1.305V16.978h1.3l.005 14.998zm.26 1.82h.65a.91.91 0 00.91-.91V16.978h1.98v15.908a.91.91 0 00.91.91h.651v7.615h-5.105l.004-7.615zm6.661-1.82h-1.3V16.978h1.3v14.998zm.26 1.82h.65a.91.91 0 00.91-.91V16.978h3.54V41.41h-5.101l.001-7.615zm6.92-16.818h3.541v15.908a.911.911 0 00.91.91h.65v7.615h-5.1V16.978zm6.662 14.998h-1.3V16.978h1.3v14.998zM1.82 16.978h2.301v15.908a.91.91 0 00.91.91h.65v7.615h-3.86V16.978zM55.955 41.41v-7.615h.65a.91.91 0 00.91-.91V16.978h2.301V41.41h-3.86z" fill="#A0148E"/></svg>