<svg width="19" height="20" viewBox="0 0 19 20" fill="none" xmlns="http://www.w3.org/2000/svg">
<path opacity="0.5" d="M18.9968 3.89739C18.9949 3.85163 18.9855 3.80641 18.9688 3.76348C18.9647 3.75391 18.9625 3.74391 18.9579 3.73478C18.9534 3.72565 18.9552 3.72391 18.9525 3.7187L17.143 0.240435C17.0664 0.0930435 16.9095 -5.4324e-05 16.7381 2.37821e-08H2.2619C2.09045 -5.4324e-05 1.93365 0.0930435 1.85702 0.240435L0.0474998 3.7187C0.0447855 3.72391 0.0443329 3.72957 0.0416186 3.73478C0.0389043 3.74 0.0352858 3.75391 0.0312144 3.76348C0.0145328 3.80641 0.00508927 3.85163 0.00316665 3.89739C0.00316665 3.90261 0 3.90739 0 3.91304V19.5652C0 19.8053 0.202554 20 0.452381 20H18.5476C18.7974 20 19 19.8053 19 19.5652V3.91304C19 3.90739 18.9968 3.90304 18.9968 3.89739ZM16.4585 0.869565L17.8157 3.47826H11.7085L11.3692 0.869565H16.4585ZM8.54231 0.869565H10.4577L10.797 3.47826H8.20302L8.54231 0.869565ZM8.14286 4.34783H10.8571V9.56522H8.14286V4.34783ZM2.54102 0.869565H7.63031L7.29102 3.47826H1.18388L2.54102 0.869565ZM18.0952 19.1304H0.904762V4.34783H7.2381V10C7.2381 10.2401 7.44065 10.4348 7.69048 10.4348H11.3095C11.5594 10.4348 11.7619 10.2401 11.7619 10V4.34783H18.0952V19.1304Z" fill="#2D0027"/>
</svg>
