<svg width="23" height="18" viewBox="0 0 23 18" fill="none" xmlns="http://www.w3.org/2000/svg">
<g opacity="0.5">
<path d="M22.1203 6.68785L21.619 6.15083L19.8596 1.35249C19.5598 0.541989 18.7932 0.00497238 17.938 0H5.37158C4.51645 0 3.74979 0.541989 3.45 1.35249L1.71517 6.09116L0.992735 6.7674C0.363675 7.30939 0 8.10497 0 8.94033V15.9315C0.00491453 17.0751 0.923932 18 2.05427 18H3.35171C4.48205 18 5.40107 17.0751 5.40598 15.9315V14.9171H17.594V15.9315C17.5989 17.0751 18.5179 18 19.6483 18H20.9457C22.0761 18 22.9951 17.0751 23 15.9315V8.75635C22.9951 7.97569 22.6806 7.22983 22.1203 6.68785ZM4.37393 1.69061C4.5312 1.26796 4.92927 0.994475 5.37158 0.994475H17.9429C18.3853 0.994475 18.7833 1.27293 18.9406 1.69061L20.4739 5.8674H19.3288C19.0585 4.00276 17.3434 2.71492 15.5004 2.99337C14.031 3.21215 12.8761 4.38066 12.6598 5.8674H2.8406L4.37393 1.69061ZM18.3263 5.8674H13.6526C13.9229 4.55967 15.1908 3.72431 16.4833 3.99779C17.4073 4.19668 18.1297 4.92762 18.3263 5.8674ZM4.42308 15.9315C4.41816 16.5282 3.94145 17.0055 3.35171 17.0055H2.05427C1.46453 17.0055 0.987821 16.5282 0.982906 15.9315V14.6287C1.27778 14.8227 1.66603 14.9171 2.05427 14.9171H4.42308V15.9315ZM22.0171 15.9315C22.0122 16.5282 21.5355 17.0055 20.9457 17.0055H19.6483C19.0585 17.0055 18.5818 16.5232 18.5769 15.9315V14.9171H20.9457C21.334 14.9171 21.7222 14.8227 22.0171 14.6287V15.9315ZM20.9457 13.9227H2.05427C1.46944 13.9276 0.987821 13.4552 0.982906 12.8586V8.94033C0.982906 8.39337 1.22372 7.87127 1.63654 7.51823C1.64145 7.51326 1.65128 7.50331 1.6562 7.49834L2.32457 6.86188H20.9359L21.4077 7.37403C21.4126 7.38398 21.4274 7.38895 21.4323 7.39889C21.8009 7.75193 22.0122 8.2442 22.0122 8.75635V12.8586H22.0171C22.0122 13.4503 21.5306 13.9276 20.9457 13.9227Z" fill="#2D0027"/>
<path d="M6.48718 8.85083H2.80128C2.53098 8.85083 2.30983 9.07459 2.30983 9.34807V11.9337C2.30983 12.2072 2.53098 12.4309 2.80128 12.4309H6.48718C6.75748 12.4309 6.97863 12.2072 6.97863 11.9337V9.34807C6.97863 9.07459 6.75748 8.85083 6.48718 8.85083ZM5.99573 11.4365H3.29274V9.8453H5.99573V11.4365Z" fill="#2D0027"/>
<path d="M20.1987 8.85083H16.5128C16.2425 8.85083 16.0214 9.07459 16.0214 9.34807V11.9337C16.0214 12.2072 16.2425 12.4309 16.5128 12.4309H20.1987C20.469 12.4309 20.6902 12.2072 20.6902 11.9337V9.34807C20.6902 9.07459 20.469 8.85083 20.1987 8.85083ZM19.7073 11.4365H17.0043V9.8453H19.7073V11.4365Z" fill="#2D0027"/>
</g>
</svg>
