<svg width="19" height="18" viewBox="0 0 19 18" fill="none" xmlns="http://www.w3.org/2000/svg">
<path d="M16.1987 0H3.54051C2.09456 0 0.917969 1.17659 0.917969 2.62254V15.2807C0.917969 16.7266 2.09456 17.9032 3.54051 17.9032H16.1987C17.6446 17.9032 18.8212 16.7266 18.8212 15.2807V2.62254C18.8212 1.17659 17.6446 0 16.1987 0ZM9.90455 13.6372C7.30154 13.6372 5.18397 11.5197 5.18397 8.91665C5.18397 6.31363 7.30154 4.19607 9.90455 4.19607C12.5076 4.19607 14.6251 6.31363 14.6251 8.91665C14.6251 11.5197 12.5076 13.6372 9.90455 13.6372ZM15.1496 5.24509C14.282 5.24509 13.5761 4.53918 13.5761 3.67156C13.5761 2.80394 14.282 2.09803 15.1496 2.09803C16.0173 2.09803 16.7232 2.80394 16.7232 3.67156C16.7232 4.53918 16.0173 5.24509 15.1496 5.24509Z" fill="#2D0027"/>
</svg>
