<svg width="154" height="34" viewBox="0 0 154 34" fill="none" xmlns="http://www.w3.org/2000/svg">
<path fill-rule="evenodd" clip-rule="evenodd" d="M0 0L5.60001 2.97294V22.3905H28V28H0V0Z" fill="#A0148E"/>
<path fill-rule="evenodd" clip-rule="evenodd" d="M11.2171 16.8718L11.2171 5.74359L13.9574 7.25068L16.7812 5.77122L16.7812 16.8718L11.2171 16.8718Z" fill="#A0148E"/>
<path fill-rule="evenodd" clip-rule="evenodd" d="M22.4359 16.8718L22.4359 2.94641L28 0L28 16.8718L22.4359 16.8718Z" fill="#A0148E"/>
<path d="M52.456 18.64H45.544V6.904C45.544 6.352 45.28 6.208 44.848 6.208H42.472C42.04 6.208 41.776 6.352 41.776 6.904V21.304C41.776 21.736 41.92 22 42.472 22H52.456C53.008 22 53.152 21.736 53.152 21.304V19.336C53.152 18.904 53.008 18.64 52.456 18.64ZM71.1048 6.184H68.8008C68.0088 6.184 67.8888 6.712 67.7207 7L64.4088 12.904L61.1208 7C60.9288 6.712 60.8328 6.184 60.0167 6.184H57.6407C57.0887 6.184 56.9447 6.448 56.9447 6.88V21.304C56.9447 21.856 57.2087 22 57.6407 22H60.0167C60.4488 22 60.7127 21.856 60.7127 21.304V13.168L63.1368 17.368C63.2568 17.56 63.4488 17.872 63.8088 17.872H65.0088C65.3688 17.872 65.5848 17.56 65.7048 17.368L68.1048 13.168V21.304C68.1048 21.856 68.3688 22 68.8008 22H71.1048C71.5368 22 71.8008 21.856 71.8008 21.304V6.88C71.8008 6.448 71.6568 6.184 71.1048 6.184ZM90.1272 21.328L84.8232 6.952C84.6072 6.448 84.3672 6.208 83.8392 6.208H81.5352C81.0072 6.208 80.7432 6.448 80.5512 6.952L75.2232 21.328C75.1032 21.616 75.1032 22 75.6312 22H78.1512C78.6792 22 78.8712 21.856 79.0632 21.28L79.7352 19.384H85.6152L86.2872 21.28C86.4792 21.856 86.6712 22 87.1992 22H89.7192C90.2472 22 90.2472 21.616 90.1272 21.328ZM80.8872 16.024L82.6872 10.72L84.4872 16.024H80.8872ZM106.406 21.232L103.022 16.312C104.51 15.808 106.358 14.056 106.358 11.536C106.358 10 105.854 8.632 104.966 7.768C103.958 6.76 102.806 6.232 100.19 6.232H94.1417C93.5897 6.232 93.4697 6.496 93.4697 6.928V21.304C93.4697 21.856 93.7097 22 94.1417 22H96.5177C96.9497 22 97.2137 21.856 97.2137 21.304V9.592H100.406C101.654 9.592 102.614 10.384 102.614 11.632C102.614 12.76 101.51 13.576 100.334 13.576H99.8537C99.3017 13.576 99.1577 13.84 99.1577 14.272V16.192C99.1577 16.864 99.2057 17.128 99.4217 17.416L102.014 21.28C102.35 21.784 102.638 22 103.214 22H106.046C106.502 22 106.622 21.568 106.406 21.232ZM123.806 6.208H120.566C120.014 6.208 119.846 6.256 119.366 6.784L114.398 12.256V6.904C114.398 6.352 114.134 6.208 113.726 6.208H111.35C110.894 6.208 110.654 6.352 110.654 6.904V21.304C110.654 21.856 110.894 22 111.35 22H113.726C114.134 22 114.398 21.856 114.398 21.304V17.032L115.886 15.472C117.182 17.632 119.318 21.232 119.318 21.232C119.63 21.736 119.942 22 120.518 22H123.446C123.902 22 123.998 21.544 123.806 21.232L118.646 12.736L124.046 6.88C124.262 6.664 124.262 6.208 123.806 6.208ZM138.237 6.208H127.101C126.549 6.208 126.405 6.472 126.405 6.904V8.896C126.405 9.328 126.549 9.592 127.101 9.592H130.797V21.304C130.797 21.856 131.061 22 131.493 22H133.869C134.301 22 134.565 21.856 134.565 21.304V9.592H138.237C138.789 9.592 138.933 9.328 138.933 8.896V6.904C138.933 6.472 138.789 6.208 138.237 6.208Z" fill="#A0148E"/>
</svg>
