<svg style="height: 0; width: 0; position: absolute; visibility: hidden;">
     <symbol viewBox="0 0 19 18" id="fs">
      <path class="icon"
        d="M17.6767 2.02513e-08H1.74911C1.20373 0.00032784 0.761609 0.442663 0.761719 0.988262V16.9158C0.762047 17.4612 1.20438 17.9033 1.74998 17.9032H10.3253V10.9797H7.99994V8.26975H10.3253V6.27542C10.3253 3.96266 11.7372 2.70384 13.8002 2.70384C14.7884 2.70384 15.6375 2.77749 15.885 2.81038V5.2276H14.4624C13.34 5.2276 13.1226 5.76096 13.1226 6.54379V8.26975H15.8064L15.4567 10.9797H13.1226V17.9032H17.6767C18.2224 17.9033 18.6648 17.4611 18.6649 16.9154C18.6649 16.9153 18.6649 16.9152 18.6649 16.915V0.987387C18.6647 0.442008 18.2223 -0.000109252 17.6767 2.02513e-08Z" />
    </symbol>
    <symbol viewBox="0 0 19 18" id="in">
      <path class="icon"
        d="M16.1987 0H3.54051C2.09456 0 0.917969 1.17659 0.917969 2.62254V15.2807C0.917969 16.7266 2.09456 17.9032 3.54051 17.9032H16.1987C17.6446 17.9032 18.8212 16.7266 18.8212 15.2807V2.62254C18.8212 1.17659 17.6446 0 16.1987 0ZM9.90455 13.6372C7.30154 13.6372 5.18397 11.5197 5.18397 8.91665C5.18397 6.31363 7.30154 4.19607 9.90455 4.19607C12.5076 4.19607 14.6251 6.31363 14.6251 8.91665C14.6251 11.5197 12.5076 13.6372 9.90455 13.6372ZM15.1496 5.24509C14.282 5.24509 13.5761 4.53918 13.5761 3.67156C13.5761 2.80394 14.282 2.09803 15.1496 2.09803C16.0173 2.09803 16.7232 2.80394 16.7232 3.67156C16.7232 4.53918 16.0173 5.24509 15.1496 5.24509Z" />
      <defs>
        <linearGradient id="paint0_linear" x1="9.86763" y1="0" x2="9.86763" y2="17.9032" gradientUnits="userSpaceOnUse">
          <stop stop-color="#F200A3" />
          <stop offset="0.494792" stop-color="#FF0000" />
          <stop offset="1" stop-color="#FFC100" />
        </linearGradient>
        <linearGradient id="paint1_linear" x1="9.86763" y1="0" x2="9.86763" y2="17.9032" gradientUnits="userSpaceOnUse">
          <stop stop-color="#F200A3" />
          <stop offset="0.494792" stop-color="#FF0000" />
          <stop offset="1" stop-color="#FFC100" />
        </linearGradient>
        <linearGradient id="paint2_linear" x1="9.86763" y1="0" x2="9.86763" y2="17.9032" gradientUnits="userSpaceOnUse">
          <stop stop-color="#F200A3" />
          <stop offset="0.494792" stop-color="#FF0000" />
          <stop offset="1" stop-color="#FFC100" />
        </linearGradient>
      </defs>
    </symbol>
    <symbol viewBox="0 0 21 17" id="tw">
      <path class="icon"
        d="M8.56772 11.1482L8.22926 15.8611C8.71351 15.8611 8.92324 15.6552 9.17474 15.4079L11.4451 13.2599L16.1495 16.6705C17.0123 17.1465 17.6202 16.8959 17.8529 15.8847L20.9409 1.56029L20.9417 1.55944C21.2154 0.29681 20.4805 -0.196933 19.6399 0.112817L1.48896 6.9923C0.250198 7.46832 0.268954 8.15196 1.27838 8.46171L5.91884 9.89061L16.6977 3.21369C17.205 2.88115 17.6662 3.06515 17.2868 3.39768L8.56772 11.1482Z" />
    </symbol>
    <symbol viewBox="0 0 23 14" id="vk">
      <path class="icon"
        d="M22.3063 11.9636C22.2458 11.8628 21.8716 11.0531 20.0709 9.38881C18.1858 7.64611 18.4391 7.92909 20.7096 4.91579C22.0925 3.08063 22.6453 1.95993 22.4723 1.48083C22.3077 1.02414 21.2906 1.14461 21.2906 1.14461L17.9087 1.16423C17.9087 1.16423 17.6583 1.13061 17.4712 1.24128C17.2897 1.35054 17.1729 1.6027 17.1729 1.6027C17.1729 1.6027 16.637 3.0232 15.9223 4.23076C14.4156 6.77897 13.8121 6.91345 13.5659 6.75515C12.9934 6.38672 13.1369 5.27302 13.1369 4.48292C13.1369 2.01316 13.5125 0.983513 12.4039 0.717345C12.0354 0.629089 11.7653 0.570252 10.8241 0.560446C9.6171 0.547838 8.59437 0.564649 8.01618 0.846226C7.63072 1.03394 7.33389 1.45281 7.51536 1.47662C7.73904 1.50604 8.24548 1.61251 8.51418 1.97674C8.86166 2.44603 8.84899 3.5023 8.84899 3.5023C8.84899 3.5023 9.04876 6.40913 8.38335 6.77056C7.92614 7.01852 7.30012 6.5128 5.95664 4.19994C5.26872 3.01619 4.74821 1.70637 4.74821 1.70637C4.74821 1.70637 4.64833 1.46261 4.46967 1.33233C4.25303 1.17403 3.94916 1.1236 3.94916 1.1236L0.733249 1.14321C0.733249 1.14321 0.250722 1.15722 0.0734669 1.36595C-0.0840931 1.55227 0.0608058 1.93611 0.0608058 1.93611C0.0608058 1.93611 2.57895 7.80161 5.4291 10.7589C8.04431 13.4696 11.0126 13.2917 11.0126 13.2917H12.3575C12.3575 13.2917 12.7641 13.2468 12.9709 13.0241C13.1622 12.8196 13.1552 12.4357 13.1552 12.4357C13.1552 12.4357 13.1284 10.6384 13.9669 10.3736C14.7927 10.1131 15.8534 12.1107 16.9774 12.8798C17.8271 13.4612 18.4728 13.3337 18.4728 13.3337L21.4791 13.2917C21.4791 13.2917 23.0519 13.195 22.3063 11.9636Z" />
    </symbol>
    <symbol viewBox="0 0 154 34" id="logo">
      <path fill-rule="evenodd" clip-rule="evenodd" d="M0 0L5.60001 2.97294V22.3905H28V28H0V0Z" />
      <path fill-rule="evenodd" clip-rule="evenodd"
        d="M11.2171 16.8718L11.2171 5.74359L13.9574 7.25068L16.7812 5.77122L16.7812 16.8718L11.2171 16.8718Z" />
      <path fill-rule="evenodd" clip-rule="evenodd"
        d="M22.4359 16.8718L22.4359 2.94641L28 0L28 16.8718L22.4359 16.8718Z" />
      <path class="logo"
        d="M52.456 18.64H45.544V6.904C45.544 6.352 45.28 6.208 44.848 6.208H42.472C42.04 6.208 41.776 6.352 41.776 6.904V21.304C41.776 21.736 41.92 22 42.472 22H52.456C53.008 22 53.152 21.736 53.152 21.304V19.336C53.152 18.904 53.008 18.64 52.456 18.64ZM71.1048 6.184H68.8008C68.0088 6.184 67.8888 6.712 67.7207 7L64.4088 12.904L61.1208 7C60.9288 6.712 60.8328 6.184 60.0167 6.184H57.6407C57.0887 6.184 56.9447 6.448 56.9447 6.88V21.304C56.9447 21.856 57.2087 22 57.6407 22H60.0167C60.4488 22 60.7127 21.856 60.7127 21.304V13.168L63.1368 17.368C63.2568 17.56 63.4488 17.872 63.8088 17.872H65.0088C65.3688 17.872 65.5848 17.56 65.7048 17.368L68.1048 13.168V21.304C68.1048 21.856 68.3688 22 68.8008 22H71.1048C71.5368 22 71.8008 21.856 71.8008 21.304V6.88C71.8008 6.448 71.6568 6.184 71.1048 6.184ZM90.1272 21.328L84.8232 6.952C84.6072 6.448 84.3672 6.208 83.8392 6.208H81.5352C81.0072 6.208 80.7432 6.448 80.5512 6.952L75.2232 21.328C75.1032 21.616 75.1032 22 75.6312 22H78.1512C78.6792 22 78.8712 21.856 79.0632 21.28L79.7352 19.384H85.6152L86.2872 21.28C86.4792 21.856 86.6712 22 87.1992 22H89.7192C90.2472 22 90.2472 21.616 90.1272 21.328ZM80.8872 16.024L82.6872 10.72L84.4872 16.024H80.8872ZM106.406 21.232L103.022 16.312C104.51 15.808 106.358 14.056 106.358 11.536C106.358 10 105.854 8.632 104.966 7.768C103.958 6.76 102.806 6.232 100.19 6.232H94.1417C93.5897 6.232 93.4697 6.496 93.4697 6.928V21.304C93.4697 21.856 93.7097 22 94.1417 22H96.5177C96.9497 22 97.2137 21.856 97.2137 21.304V9.592H100.406C101.654 9.592 102.614 10.384 102.614 11.632C102.614 12.76 101.51 13.576 100.334 13.576H99.8537C99.3017 13.576 99.1577 13.84 99.1577 14.272V16.192C99.1577 16.864 99.2057 17.128 99.4217 17.416L102.014 21.28C102.35 21.784 102.638 22 103.214 22H106.046C106.502 22 106.622 21.568 106.406 21.232ZM123.806 6.208H120.566C120.014 6.208 119.846 6.256 119.366 6.784L114.398 12.256V6.904C114.398 6.352 114.134 6.208 113.726 6.208H111.35C110.894 6.208 110.654 6.352 110.654 6.904V21.304C110.654 21.856 110.894 22 111.35 22H113.726C114.134 22 114.398 21.856 114.398 21.304V17.032L115.886 15.472C117.182 17.632 119.318 21.232 119.318 21.232C119.63 21.736 119.942 22 120.518 22H123.446C123.902 22 123.998 21.544 123.806 21.232L118.646 12.736L124.046 6.88C124.262 6.664 124.262 6.208 123.806 6.208ZM138.237 6.208H127.101C126.549 6.208 126.405 6.472 126.405 6.904V8.896C126.405 9.328 126.549 9.592 127.101 9.592H130.797V21.304C130.797 21.856 131.061 22 131.493 22H133.869C134.301 22 134.565 21.856 134.565 21.304V9.592H138.237C138.789 9.592 138.933 9.328 138.933 8.896V6.904C138.933 6.472 138.789 6.208 138.237 6.208Z" />
    </symbol>
    <symbol viewBox="0 0 22 19" id="favorites">
      <path class="servis-icon"
        d="M20.223 1.76393C19.071 0.632264 17.5459 0.0137449 15.9182 0.0137449C14.2904 0.0137449 12.7606 0.636846 11.6086 1.76851L11.007 2.35954L10.396 1.75934C9.24401 0.627683 7.70957 0 6.08184 0C4.45878 0 2.929 0.623101 1.78166 1.75018C0.629662 2.88184 -0.00463843 4.38462 2.55386e-05 5.9836C2.55386e-05 7.58259 0.638989 9.08078 1.79099 10.2124L10.5499 18.8167C10.6712 18.9359 10.8344 19 10.993 19C11.1516 19 11.3148 18.9404 11.4361 18.8213L20.2137 10.2308C21.3657 9.09911 22 7.59633 22 5.99735C22.0046 4.39836 21.375 2.89559 20.223 1.76393ZM19.3275 9.35568L10.993 17.511L2.67714 9.34193C1.76301 8.44394 1.2593 7.25271 1.2593 5.9836C1.2593 4.71449 1.75834 3.52327 2.67248 2.62985C3.58195 1.73644 4.79459 1.24162 6.08184 1.24162C7.37376 1.24162 8.59106 1.73644 9.5052 2.63443L10.5593 3.66988C10.8064 3.91271 11.2029 3.91271 11.4501 3.66988L12.4948 2.6436C13.4089 1.7456 14.6262 1.25078 15.9135 1.25078C17.2007 1.25078 18.4134 1.7456 19.3275 2.63902C20.2417 3.53701 20.7407 4.72824 20.7407 5.99735C20.7454 7.26646 20.2417 8.45768 19.3275 9.35568Z" />
    </symbol>
    <symbol viewBox="0 0 21 16" id="comparison">
      <path class="servis-icon" d="M20.5 15H6.5M4.5 15H0.5M20.5 8H6.5M4.5 8H0.5M20.5 1H6.5M4.5 1H0.5"
        stroke-width="1.4" />
    </symbol>
    <symbol viewBox="0 0 21 23" id="profile">
      <path class="servis-icon"
        d="M7.18421 12.8696C7.18421 12.8696 1.5 15.1522 1.5 17.8913C1.5 20.6304 4.34211 22 6.23684 22C8.13158 22 10.5 22 10.5 22C10.5 22 12.8684 22 14.7632 22C16.6579 22 19.5 20.6304 19.5 17.8913C19.5 15.1522 13.8158 12.8696 13.8158 12.8696M10.5 1C8.13158 1 6.23684 3.69339 6.23684 6.47826C6.23684 9.26313 8.13158 11.9565 10.5 11.9565C12.8684 11.9565 14.7632 9.21739 14.7632 6.47826C14.7632 3.73913 12.8684 1 10.5 1Z"
        stroke-width="1.2" />
    </symbol>
    <symbol viewBox="0 0 25 22" id="basket">
      <path class="servis-icon"
        d="M0.5 1C0.5 1 3.72 1 4.18 1C4.64 1 5.1 1.44444 5.56 1.88889C6.02 2.33333 6.48 4.11111 6.48 4.11111L6.50968 4.55556M9.66167 19.2222H8.74167C8.74167 19.2222 7.4 18.7778 7.4 17.8889C7.4 17 7.04387 12.5556 7.04387 12.5556M9.66167 19.2222C9.66167 19.2222 9.66167 17.4444 11.5017 17.4444C13.3417 17.4444 13.3417 19.2222 13.3417 19.2222M9.66167 19.2222C9.66167 19.2222 9.66167 21 11.5017 21C13.3417 21 13.3417 19.2222 13.3417 19.2222M13.3417 19.2222H17.0217M17.0217 19.2222C17.0217 19.2222 17.0217 17.4444 18.8617 17.4444C20.7017 17.4444 20.7017 19.2222 20.7017 19.2222C20.7017 19.2222 20.7017 21 18.8617 21C17.0217 21 17.0217 19.2222 17.0217 19.2222ZM6.50968 4.55556H23.5C23.5 4.55556 23.5 8.5 23.5 11.2222C23.5 12.5556 21.66 12.5556 21.66 12.5556H7.04387M6.50968 4.55556L7.04387 12.5556"
        stroke-width="1.3" />
    </symbol>
    <symbol viewBox="0 0 15 26" id="arrow-prev">
      <path d="M14 1.00002L2 13L14 25" stroke="#A0148E" stroke-width="2.5"/>
    </symbol>
    <symbol viewBox="0 0 15 26" id="arrow-next">
      <path d="M1 25L13 13L0.999999 1" stroke="#A0148E" stroke-width="2.5"/>
    </symbol>
    <symbol>

    </symbol>
  </svg>