<svg width="62" height="44" viewBox="0 0 62 44" fill="none" xmlns="http://www.w3.org/2000/svg">
<path d="M60.7264 0H0.910246C0.668876 0.000137808 0.437431 0.0960826 0.266757 0.266757C0.0960826 0.437431 0.000137808 0.668876 0 0.910246V42.3217C0.000137808 42.5631 0.0960826 42.7946 0.266757 42.9652C0.437431 43.1359 0.668876 43.2319 0.910246 43.232H60.7264C60.9678 43.2319 61.1992 43.1359 61.3699 42.9652C61.5406 42.7946 61.6365 42.5631 61.6367 42.3217V0.910246C61.6365 0.668876 61.5406 0.437431 61.3699 0.266757C61.1992 0.0960826 60.9678 0.000137808 60.7264 0ZM59.8162 1.82049V15.1574H1.82049V1.82049H59.8162ZM7.24192 31.9756H5.94157V16.9779H7.24192V31.9756ZM8.15216 33.7961C8.39353 33.796 8.62498 33.7 8.79565 33.5294C8.96633 33.3587 9.06227 33.1273 9.06241 32.8859V16.9779H11.0431V32.8859C11.0432 33.1273 11.1392 33.3587 11.3099 33.5294C11.4805 33.7 11.712 33.796 11.9534 33.7961H12.6035V41.4115H7.50199V33.7961H8.15216ZM14.1639 31.9756H12.8636V16.9779H14.1639V31.9756ZM14.424 33.7961H15.0742C15.3156 33.796 15.547 33.7 15.7177 33.5294C15.8884 33.3587 15.9843 33.1273 15.9844 32.8859V16.9779H19.5256V41.4115H14.424V33.7961ZM21.346 16.9779H24.8887V32.8859C24.8889 33.1273 24.9848 33.3587 25.1555 33.5294C25.3262 33.7 25.5576 33.796 25.799 33.7961H26.4491V41.4115H21.346V16.9779ZM28.0096 31.9756H26.7092V16.9779H28.0096V31.9756ZM28.2696 33.7961H28.9198C29.1612 33.7961 29.3927 33.7002 29.5635 33.5295C29.7342 33.3588 29.8301 33.1273 29.8301 32.8859V16.9779H31.8066V32.8859C31.8067 33.1273 31.9027 33.3587 32.0734 33.5294C32.244 33.7 32.4755 33.796 32.7168 33.7961H33.367V41.4115H28.2696V33.7961ZM34.9316 31.9756H33.6271V16.9779H34.9274L34.9316 31.9756ZM35.1917 33.7961H35.8418C36.0832 33.796 36.3147 33.7 36.4853 33.5294C36.656 33.3587 36.7519 33.1273 36.7521 32.8859V16.9779H38.7323V32.8859C38.7324 33.1273 38.8284 33.3587 38.999 33.5294C39.1697 33.7 39.4011 33.796 39.6425 33.7961H40.2932V41.4115H35.1875L35.1917 33.7961ZM41.8531 31.9756H40.5528V16.9779H41.8531V31.9756ZM42.1132 33.7961H42.7628C43.0042 33.7961 43.2358 33.7002 43.4065 33.5295C43.5772 33.3588 43.6731 33.1273 43.6731 32.8859V16.9779H47.2132V41.4115H42.1116L42.1132 33.7961ZM49.0336 16.9779H52.5742V32.8859C52.5744 33.1273 52.6703 33.3587 52.841 33.5294C53.0117 33.7 53.2431 33.796 53.4845 33.7961H54.1347V41.4115H49.0336V16.9779ZM55.6951 31.9756H54.3947V16.9779H55.6951V31.9756ZM1.82049 16.9779H4.12107V32.8859C4.12121 33.1273 4.21716 33.3587 4.38783 33.5294C4.55851 33.7 4.78995 33.796 5.03132 33.7961H5.6815V41.4115H1.82049V16.9779ZM55.9552 41.4115V33.7961H56.6053C56.8467 33.796 57.0781 33.7 57.2488 33.5294C57.4195 33.3587 57.5154 33.1273 57.5156 32.8859V16.9779H59.8162V41.4115H55.9552Z" fill="#A0148E"/>
</svg>
